<svg xmlns="http://www.w3.org/2000/svg" version="1.1" xmlns:xlink="http://www.w3.org/1999/xlink" xmlns:svgjs="http://svgjs.dev/svgjs" width="1500" height="1500" viewBox="0 0 1500 1500"><rect width="1500" height="1500" fill="#000000"></rect><g transform="matrix(0.6666666666666666,0,0,0.6666666666666666,249.39393939393938,435.99032258064517)"><svg viewBox="0 0 396 248" data-background-color="#000000" preserveAspectRatio="xMidYMid meet" height="939" width="1500" xmlns="http://www.w3.org/2000/svg" xmlns:xlink="http://www.w3.org/1999/xlink"><g id="tight-bounds" transform="matrix(1,0,0,1,0.2400000000000091,0.4000000000000057)"><svg viewBox="0 0 395.52 247.2" height="247.2" width="395.52"><rect width="395.52" height="247.2" fill="url(#b4f32806-d126-4489-b90f-f56abb826ebe)" mask="url(#31aa3542-e8d5-4005-926e-1dc8a3dd6cb1)" data-fill-palette-color="tertiary"></rect><g><svg></svg></g><g><svg viewBox="0 0 395.52 247.2" height="247.2" width="395.52"><mask id="86411103-6cd5-4140-b04b-8b3499067d1f"><rect width="395.52" height="247.2" fill="white"></rect><g transform="matrix(1,0,0,1,133.74358642972535,37.08)" id="clone"><svg viewBox="0 0 128.03282714054927 173.04" height="173.04" width="128.03282714054927"><g><svg viewBox="0 0 128.03282714054927 173.04" height="173.04" width="128.03282714054927"><g><svg viewBox="0 0 128.03282714054927 173.04" height="173.04" width="128.03282714054927"><g><svg viewBox="0 0 128.03282714054927 173.04" height="173.04" width="128.03282714054927"><g id="SvgjsG1054"><svg viewBox="0 0 128.03282714054927 173.04" height="173.04" width="128.03282714054927" id="SvgjsSvg1053"><g><svg viewBox="0 0 128.03282714054927 173.04" height="173.04" width="128.03282714054927"><g transform="matrix(1,0,0,1,0,0)"><svg width="128.03282714054927" viewBox="-2.75 -28.3 23.9 31.95" height="173.04" data-palette-color="url(#638bb45d-4d53-4eaa-bc11-a20dc0f58917)"><path d="M9.1 0.65L9.1 0.65Q4.1 0.65 2.18-1.38 0.25-3.4 0.25-7.8L0.25-7.8 0.25-10.65 3.75-10.65Q2.55-11.45 1.68-12.75 0.8-14.05 0.8-16.35L0.8-16.35 0.8-17.6Q0.8-21.7 2.8-23.5 4.8-25.3 9.65-25.3L9.65-25.3Q14.55-25.3 16.35-23.38 18.15-21.45 18.15-17.15L18.15-17.15 18.15-14.4 15.15-14.4Q16.45-13.65 17.3-12.4 18.15-11.15 18.15-8.95L18.15-8.95 18.15-7.35Q18.15-3.1 16.13-1.23 14.1 0.65 9.1 0.65ZM9.1-0.25L9.1-0.25Q13.55-0.25 15.43-1.93 17.3-3.6 17.3-7.35L17.3-7.35 17.3-8.95Q17.3-11.3 16.05-12.63 14.8-13.95 12.9-14.5L12.9-14.5 12.05-14.75Q11.65-14.85 11.28-14.98 10.9-15.1 10.6-15.3L10.6-15.3 17.3-15.3 17.3-17.15Q17.3-21 15.65-22.73 14-24.45 9.65-24.45L9.65-24.45Q5.25-24.45 3.45-22.85 1.65-21.25 1.65-17.6L1.65-17.6 1.65-16.35Q1.65-13.85 3.08-12.48 4.5-11.1 6.35-10.45L6.35-10.45Q6.6-10.35 7.15-10.1 7.7-9.85 7.9-9.75L7.9-9.75 1.1-9.75 1.1-7.8Q1.1-3.85 2.83-2.05 4.55-0.25 9.1-0.25ZM9.1-0.7L9.1-0.7Q4.8-0.7 3.18-2.43 1.55-4.15 1.55-7.8L1.55-7.8 1.55-9.3 8.25-9.3 8.25-5.9Q8.25-5.05 8.45-4.73 8.65-4.4 9-4.4L9-4.4Q9.4-4.4 9.55-4.75 9.7-5.1 9.7-5.6L9.7-5.6 9.7-7.65Q9.7-9.25 8.68-9.83 7.65-10.4 6.15-11L6.15-11Q4.55-11.7 3.33-12.85 2.1-14 2.1-16.35L2.1-16.35 2.1-17.6Q2.1-21 3.83-22.5 5.55-24 9.65-24L9.65-24Q13.75-24 15.3-22.38 16.85-20.75 16.85-17.15L16.85-17.15 16.85-15.75 10.4-15.75 10.4-19.1Q10.4-20.3 9.7-20.3L9.7-20.3Q9.35-20.3 9.15-20.08 8.95-19.85 8.95-19.15L8.95-19.15 8.95-17.05Q8.95-15.95 9.75-15.33 10.55-14.7 12.75-14L12.75-14Q14.5-13.45 15.68-12.33 16.85-11.2 16.85-8.95L16.85-8.95 16.85-7.35Q16.85-3.85 15.1-2.27 13.35-0.7 9.1-0.7ZM10-19.15L10-15.7Q9.4-16.15 9.4-17.05L9.4-17.05 9.4-19.15Q9.4-19.85 9.7-19.85L9.7-19.85Q10-19.85 10-19.15L10-19.15ZM9-4.85L9-4.85Q8.85-4.85 8.78-5.03 8.7-5.2 8.7-5.7L8.7-5.7 8.7-9.3Q9.3-8.7 9.3-7.65L9.3-7.65 9.3-5.6Q9.3-4.85 9-4.85Z" opacity="1" transform="matrix(1,0,0,1,0,0)" fill="black" class="wordmark-text-0" id="SvgjsPath1052" stroke-width="5" stroke="black" stroke-linejoin="round"></path></svg></g></svg></g></svg></g></svg></g></svg></g></svg></g></svg></g></mask><g mask="url(#86411103-6cd5-4140-b04b-8b3499067d1f)"><g><path d="M195.898 225.352v0c-14.447 0-26.186-1.919-35.216-5.756-9.03-3.838-15.734-10.339-20.113-19.504-4.425-9.12-6.637-21.919-6.637-38.398v0-14.222h39.279c-9.707-3.612-17.314-7.969-22.822-13.07-5.553-5.057-9.459-11.603-11.716-19.64-2.257-7.991-3.386-18.307-3.386-30.949v0c0-15.576 1.919-27.879 5.756-36.908 3.838-9.03 10.271-15.463 19.301-19.301 9.03-3.838 21.445-5.756 37.247-5.756v0c41.31 0 61.966 17.833 61.965 53.5v0 29.798h-25.734c6.998 3.612 12.483 7.675 16.456 12.19 3.928 4.515 6.795 10.203 8.601 17.066 1.806 6.908 2.709 15.779 2.709 26.614v0c0 23.251-5.643 39.775-16.931 49.573-11.287 9.842-27.54 14.763-48.759 14.763zM195.898 219.257v0c19.188 0 33.974-4.402 44.358-13.206 10.384-8.804 15.576-23.816 15.576-45.035v0c0-12.19-1.016-21.558-3.048-28.104-2.032-6.546-5.869-11.806-11.513-15.779-5.643-3.928-13.883-7.923-24.718-11.987v0c-3.612-1.354-6.321-2.483-8.127-3.386-1.806-0.903-3.386-1.806-4.74-2.709v0h50.114v-23.703c0-31.604-18.736-47.405-56.209-47.405v0c-14.222 0-25.396 1.806-33.523 5.418-8.127 3.612-13.928 9.481-17.404 17.607-3.522 8.127-5.282 19.075-5.282 32.845v0c0 14.447 2.032 26.186 6.094 35.216 4.063 9.03 11.964 16.253 23.703 21.671v0c5.192 2.483 9.549 4.628 13.07 6.433 3.476 1.806 6.456 3.725 8.94 5.757v0h-53.501v8.804c0 21.897 4.47 36.954 13.409 45.17 8.894 8.262 23.161 12.393 42.801 12.393zM195.898 216.21v0c-18.511 0-31.987-3.838-40.43-11.513-8.488-7.675-12.732-22.01-12.732-43.003v0-5.757h48.76v17.947c0 5.869 0.497 9.82 1.49 11.851 1.038 2.032 2.573 3.047 4.605 3.047v0c2.257 0 3.792-1.242 4.605-3.724 0.768-2.483 1.151-6.885 1.151-13.206v0c0-6.772-1.061-11.964-3.183-15.576-2.167-3.612-5.508-6.727-10.023-9.346-4.515-2.573-10.497-5.553-17.946-8.939v0c-11.061-5.192-18.511-12.032-22.348-20.52-3.838-8.443-5.756-19.662-5.757-33.658v0c0-13.093 1.648-23.477 4.944-31.152 3.251-7.675 8.781-13.161 16.592-16.456 7.765-3.251 18.42-4.876 31.965-4.876v0c35.441 0 53.162 14.673 53.161 44.019v0 20.655h-46.389v-5.079c0-4.289-0.045-7.969-0.136-11.038-0.135-3.025-0.316-5.666-0.541-7.924v0c-0.226-4.289-2.032-6.434-5.418-6.434v0c-1.58 0-2.935 0.903-4.063 2.709-1.129 1.806-1.693 5.869-1.693 12.19v0c0 6.546 0.971 11.4 2.912 14.56 1.896 3.16 4.65 5.531 8.262 7.111 3.612 1.58 7.788 3.386 12.528 5.418v0c9.255 3.612 16.547 7.337 21.874 11.174 5.282 3.838 9.052 8.962 11.31 15.373 2.257 6.456 3.386 15.441 3.386 26.953v0c0 20.091-4.966 34.312-14.899 42.665-9.933 8.352-23.928 12.529-41.987 12.529zM201.315 90.924v6.434c-1.806-1.58-3.273-3.612-4.402-6.095-1.129-2.483-1.693-6.095-1.693-10.836v0c0-4.741 0.293-7.901 0.881-9.481 0.542-1.58 1.264-2.37 2.167-2.37v0c1.354 0 2.257 1.919 2.709 5.756v0c0.226 1.806 0.339 4.108 0.338 6.908 0 2.844 0 6.072 0 9.684zM197.591 185.735v0c-1.354 0-2.19-0.903-2.506-2.709-0.361-1.806-0.542-5.192-0.542-10.158v0-19.301c2.032 2.257 3.567 4.853 4.605 7.788 0.993 2.935 1.49 6.772 1.49 11.513v0c0 5.192-0.226 8.623-0.677 10.293-0.451 1.716-1.242 2.573-2.37 2.574z" fill="url(#b4f32806-d126-4489-b90f-f56abb826ebe)" fill-rule="nonzero" stroke="none" stroke-width="1" stroke-linecap="butt" stroke-linejoin="miter" stroke-miterlimit="10" stroke-dasharray="" stroke-dashoffset="0" font-family="none" font-weight="none" font-size="none" text-anchor="none" style="mix-blend-mode: normal" data-fill-palette-color="tertiary"></path></g></g><g transform="matrix(1,0,0,1,133.74358642972535,37.08)"><svg viewBox="0 0 128.03282714054927 173.04" height="173.04" width="128.03282714054927"><g><svg viewBox="0 0 128.03282714054927 173.04" height="173.04" width="128.03282714054927"><g><svg viewBox="0 0 128.03282714054927 173.04" height="173.04" width="128.03282714054927"><g><svg viewBox="0 0 128.03282714054927 173.04" height="173.04" width="128.03282714054927"><g id="textblocktransform"><svg viewBox="0 0 128.03282714054927 173.04" height="173.04" width="128.03282714054927" id="textblock"><g><svg viewBox="0 0 128.03282714054927 173.04" height="173.04" width="128.03282714054927"><g transform="matrix(1,0,0,1,0,0)"><svg width="128.03282714054927" viewBox="-2.75 -28.3 23.9 31.95" height="173.04" data-palette-color="url(#638bb45d-4d53-4eaa-bc11-a20dc0f58917)"></svg></g></svg></g></svg></g></svg></g></svg></g></svg></g></svg></g></svg></g><defs></defs><mask id="93c72538-6996-4645-9510-1227e5f5bcd0"><g id="SvgjsG1064"><svg viewBox="0 0 395.52 247.2" height="247.2" width="395.52"><g><svg></svg></g><g><svg viewBox="0 0 395.52 247.2" height="247.2" width="395.52"><mask id="SvgjsMask1063"><rect width="395.52" height="247.2" fill="black"></rect><g transform="matrix(1,0,0,1,133.74358642972535,37.08)" id="SvgjsG1062"><svg viewBox="0 0 128.03282714054927 173.04" height="173.04" width="128.03282714054927"><g><svg viewBox="0 0 128.03282714054927 173.04" height="173.04" width="128.03282714054927"><g><svg viewBox="0 0 128.03282714054927 173.04" height="173.04" width="128.03282714054927"><g><svg viewBox="0 0 128.03282714054927 173.04" height="173.04" width="128.03282714054927"><g id="SvgjsG1061"><svg viewBox="0 0 128.03282714054927 173.04" height="173.04" width="128.03282714054927" id="SvgjsSvg1060"><g><svg viewBox="0 0 128.03282714054927 173.04" height="173.04" width="128.03282714054927"><g transform="matrix(1,0,0,1,0,0)"><svg width="128.03282714054927" viewBox="-2.75 -28.3 23.9 31.95" height="173.04" data-palette-color="url(#638bb45d-4d53-4eaa-bc11-a20dc0f58917)"><path d="M9.1 0.65L9.1 0.65Q4.1 0.65 2.18-1.38 0.25-3.4 0.25-7.8L0.25-7.8 0.25-10.65 3.75-10.65Q2.55-11.45 1.68-12.75 0.8-14.05 0.8-16.35L0.8-16.35 0.8-17.6Q0.8-21.7 2.8-23.5 4.8-25.3 9.65-25.3L9.65-25.3Q14.55-25.3 16.35-23.38 18.15-21.45 18.15-17.15L18.15-17.15 18.15-14.4 15.15-14.4Q16.45-13.65 17.3-12.4 18.15-11.15 18.15-8.95L18.15-8.95 18.15-7.35Q18.15-3.1 16.13-1.23 14.1 0.65 9.1 0.65ZM9.1-0.25L9.1-0.25Q13.55-0.25 15.43-1.93 17.3-3.6 17.3-7.35L17.3-7.35 17.3-8.95Q17.3-11.3 16.05-12.63 14.8-13.95 12.9-14.5L12.9-14.5 12.05-14.75Q11.65-14.85 11.28-14.98 10.9-15.1 10.6-15.3L10.6-15.3 17.3-15.3 17.3-17.15Q17.3-21 15.65-22.73 14-24.45 9.65-24.45L9.65-24.45Q5.25-24.45 3.45-22.85 1.65-21.25 1.65-17.6L1.65-17.6 1.65-16.35Q1.65-13.85 3.08-12.48 4.5-11.1 6.35-10.45L6.35-10.45Q6.6-10.35 7.15-10.1 7.7-9.85 7.9-9.75L7.9-9.75 1.1-9.75 1.1-7.8Q1.1-3.85 2.83-2.05 4.55-0.25 9.1-0.25ZM9.1-0.7L9.1-0.7Q4.8-0.7 3.18-2.43 1.55-4.15 1.55-7.8L1.55-7.8 1.55-9.3 8.25-9.3 8.25-5.9Q8.25-5.05 8.45-4.73 8.65-4.4 9-4.4L9-4.4Q9.4-4.4 9.55-4.75 9.7-5.1 9.7-5.6L9.7-5.6 9.7-7.65Q9.7-9.25 8.68-9.83 7.65-10.4 6.15-11L6.15-11Q4.55-11.7 3.33-12.85 2.1-14 2.1-16.35L2.1-16.35 2.1-17.6Q2.1-21 3.83-22.5 5.55-24 9.65-24L9.65-24Q13.75-24 15.3-22.38 16.85-20.75 16.85-17.15L16.85-17.15 16.85-15.75 10.4-15.75 10.4-19.1Q10.4-20.3 9.7-20.3L9.7-20.3Q9.35-20.3 9.15-20.08 8.95-19.85 8.95-19.15L8.95-19.15 8.95-17.05Q8.95-15.95 9.75-15.33 10.55-14.7 12.75-14L12.75-14Q14.5-13.45 15.68-12.33 16.85-11.2 16.85-8.95L16.85-8.95 16.85-7.35Q16.85-3.85 15.1-2.27 13.35-0.7 9.1-0.7ZM10-19.15L10-15.7Q9.4-16.15 9.4-17.05L9.4-17.05 9.4-19.15Q9.4-19.85 9.7-19.85L9.7-19.85Q10-19.85 10-19.15L10-19.15ZM9-4.85L9-4.85Q8.85-4.85 8.78-5.03 8.7-5.2 8.7-5.7L8.7-5.7 8.7-9.3Q9.3-8.7 9.3-7.65L9.3-7.65 9.3-5.6Q9.3-4.85 9-4.85Z" opacity="1" transform="matrix(1,0,0,1,0,0)" fill="black" class="wordmark-text-0" id="SvgjsPath1059" stroke-width="5" stroke="black" stroke-linejoin="round"></path></svg></g></svg></g></svg></g></svg></g></svg></g></svg></g></svg></g></mask><g mask="url(#86411103-6cd5-4140-b04b-8b3499067d1f)"><g><path d="M195.898 225.352v0c-14.447 0-26.186-1.919-35.216-5.756-9.03-3.838-15.734-10.339-20.113-19.504-4.425-9.12-6.637-21.919-6.637-38.398v0-14.222h39.279c-9.707-3.612-17.314-7.969-22.822-13.07-5.553-5.057-9.459-11.603-11.716-19.64-2.257-7.991-3.386-18.307-3.386-30.949v0c0-15.576 1.919-27.879 5.756-36.908 3.838-9.03 10.271-15.463 19.301-19.301 9.03-3.838 21.445-5.756 37.247-5.756v0c41.31 0 61.966 17.833 61.965 53.5v0 29.798h-25.734c6.998 3.612 12.483 7.675 16.456 12.19 3.928 4.515 6.795 10.203 8.601 17.066 1.806 6.908 2.709 15.779 2.709 26.614v0c0 23.251-5.643 39.775-16.931 49.573-11.287 9.842-27.54 14.763-48.759 14.763zM195.898 219.257v0c19.188 0 33.974-4.402 44.358-13.206 10.384-8.804 15.576-23.816 15.576-45.035v0c0-12.19-1.016-21.558-3.048-28.104-2.032-6.546-5.869-11.806-11.513-15.779-5.643-3.928-13.883-7.923-24.718-11.987v0c-3.612-1.354-6.321-2.483-8.127-3.386-1.806-0.903-3.386-1.806-4.74-2.709v0h50.114v-23.703c0-31.604-18.736-47.405-56.209-47.405v0c-14.222 0-25.396 1.806-33.523 5.418-8.127 3.612-13.928 9.481-17.404 17.607-3.522 8.127-5.282 19.075-5.282 32.845v0c0 14.447 2.032 26.186 6.094 35.216 4.063 9.03 11.964 16.253 23.703 21.671v0c5.192 2.483 9.549 4.628 13.07 6.433 3.476 1.806 6.456 3.725 8.94 5.757v0h-53.501v8.804c0 21.897 4.47 36.954 13.409 45.17 8.894 8.262 23.161 12.393 42.801 12.393zM195.898 216.21v0c-18.511 0-31.987-3.838-40.43-11.513-8.488-7.675-12.732-22.01-12.732-43.003v0-5.757h48.76v17.947c0 5.869 0.497 9.82 1.49 11.851 1.038 2.032 2.573 3.047 4.605 3.047v0c2.257 0 3.792-1.242 4.605-3.724 0.768-2.483 1.151-6.885 1.151-13.206v0c0-6.772-1.061-11.964-3.183-15.576-2.167-3.612-5.508-6.727-10.023-9.346-4.515-2.573-10.497-5.553-17.946-8.939v0c-11.061-5.192-18.511-12.032-22.348-20.52-3.838-8.443-5.756-19.662-5.757-33.658v0c0-13.093 1.648-23.477 4.944-31.152 3.251-7.675 8.781-13.161 16.592-16.456 7.765-3.251 18.42-4.876 31.965-4.876v0c35.441 0 53.162 14.673 53.161 44.019v0 20.655h-46.389v-5.079c0-4.289-0.045-7.969-0.136-11.038-0.135-3.025-0.316-5.666-0.541-7.924v0c-0.226-4.289-2.032-6.434-5.418-6.434v0c-1.58 0-2.935 0.903-4.063 2.709-1.129 1.806-1.693 5.869-1.693 12.19v0c0 6.546 0.971 11.4 2.912 14.56 1.896 3.16 4.65 5.531 8.262 7.111 3.612 1.58 7.788 3.386 12.528 5.418v0c9.255 3.612 16.547 7.337 21.874 11.174 5.282 3.838 9.052 8.962 11.31 15.373 2.257 6.456 3.386 15.441 3.386 26.953v0c0 20.091-4.966 34.312-14.899 42.665-9.933 8.352-23.928 12.529-41.987 12.529zM201.315 90.924v6.434c-1.806-1.58-3.273-3.612-4.402-6.095-1.129-2.483-1.693-6.095-1.693-10.836v0c0-4.741 0.293-7.901 0.881-9.481 0.542-1.58 1.264-2.37 2.167-2.37v0c1.354 0 2.257 1.919 2.709 5.756v0c0.226 1.806 0.339 4.108 0.338 6.908 0 2.844 0 6.072 0 9.684zM197.591 185.735v0c-1.354 0-2.19-0.903-2.506-2.709-0.361-1.806-0.542-5.192-0.542-10.158v0-19.301c2.032 2.257 3.567 4.853 4.605 7.788 0.993 2.935 1.49 6.772 1.49 11.513v0c0 5.192-0.226 8.623-0.677 10.293-0.451 1.716-1.242 2.573-2.37 2.574z" fill="black" fill-rule="nonzero" stroke="none" stroke-width="1" stroke-linecap="butt" stroke-linejoin="miter" stroke-miterlimit="10" stroke-dasharray="" stroke-dashoffset="0" font-family="none" font-weight="none" font-size="none" text-anchor="none" style="mix-blend-mode: normal"></path></g></g><g transform="matrix(1,0,0,1,133.74358642972535,37.08)"><svg viewBox="0 0 128.03282714054927 173.04" height="173.04" width="128.03282714054927"><g><svg viewBox="0 0 128.03282714054927 173.04" height="173.04" width="128.03282714054927"><g><svg viewBox="0 0 128.03282714054927 173.04" height="173.04" width="128.03282714054927"><g><svg viewBox="0 0 128.03282714054927 173.04" height="173.04" width="128.03282714054927"><g id="SvgjsG1058"><svg viewBox="0 0 128.03282714054927 173.04" height="173.04" width="128.03282714054927" id="SvgjsSvg1057"><g><svg viewBox="0 0 128.03282714054927 173.04" height="173.04" width="128.03282714054927"><g transform="matrix(1,0,0,1,0,0)"><svg width="128.03282714054927" viewBox="-2.75 -28.3 23.9 31.95" height="173.04" data-palette-color="url(#638bb45d-4d53-4eaa-bc11-a20dc0f58917)"><path d="M9.1 0.65L9.1 0.65Q4.1 0.65 2.18-1.38 0.25-3.4 0.25-7.8L0.25-7.8 0.25-10.65 3.75-10.65Q2.55-11.45 1.68-12.75 0.8-14.05 0.8-16.35L0.8-16.35 0.8-17.6Q0.8-21.7 2.8-23.5 4.8-25.3 9.65-25.3L9.65-25.3Q14.55-25.3 16.35-23.38 18.15-21.45 18.15-17.15L18.15-17.15 18.15-14.4 15.15-14.4Q16.45-13.65 17.3-12.4 18.15-11.15 18.15-8.95L18.15-8.95 18.15-7.35Q18.15-3.1 16.13-1.23 14.1 0.65 9.1 0.65ZM9.1-0.25L9.1-0.25Q13.55-0.25 15.43-1.93 17.3-3.6 17.3-7.35L17.3-7.35 17.3-8.95Q17.3-11.3 16.05-12.63 14.8-13.95 12.9-14.5L12.9-14.5 12.05-14.75Q11.65-14.85 11.28-14.98 10.9-15.1 10.6-15.3L10.6-15.3 17.3-15.3 17.3-17.15Q17.3-21 15.65-22.73 14-24.45 9.65-24.45L9.65-24.45Q5.25-24.45 3.45-22.85 1.65-21.25 1.65-17.6L1.65-17.6 1.65-16.35Q1.65-13.85 3.08-12.48 4.5-11.1 6.35-10.45L6.35-10.45Q6.6-10.35 7.15-10.1 7.7-9.85 7.9-9.75L7.9-9.75 1.1-9.75 1.1-7.8Q1.1-3.85 2.83-2.05 4.55-0.25 9.1-0.25ZM9.1-0.7L9.1-0.7Q4.8-0.7 3.18-2.43 1.55-4.15 1.55-7.8L1.55-7.8 1.55-9.3 8.25-9.3 8.25-5.9Q8.25-5.05 8.45-4.73 8.65-4.4 9-4.4L9-4.4Q9.4-4.4 9.55-4.75 9.7-5.1 9.7-5.6L9.7-5.6 9.7-7.65Q9.7-9.25 8.68-9.83 7.65-10.4 6.15-11L6.15-11Q4.55-11.7 3.33-12.85 2.1-14 2.1-16.35L2.1-16.35 2.1-17.6Q2.1-21 3.83-22.5 5.55-24 9.65-24L9.65-24Q13.75-24 15.3-22.38 16.85-20.75 16.85-17.15L16.85-17.15 16.85-15.75 10.4-15.75 10.4-19.1Q10.4-20.3 9.7-20.3L9.7-20.3Q9.35-20.3 9.15-20.08 8.95-19.85 8.95-19.15L8.95-19.15 8.95-17.05Q8.95-15.95 9.75-15.33 10.55-14.7 12.75-14L12.75-14Q14.5-13.45 15.68-12.33 16.85-11.2 16.85-8.95L16.85-8.95 16.85-7.35Q16.85-3.85 15.1-2.27 13.35-0.7 9.1-0.7ZM10-19.15L10-15.7Q9.4-16.15 9.4-17.05L9.4-17.05 9.4-19.15Q9.4-19.85 9.7-19.85L9.7-19.85Q10-19.85 10-19.15L10-19.15ZM9-4.85L9-4.85Q8.85-4.85 8.78-5.03 8.7-5.2 8.7-5.7L8.7-5.7 8.7-9.3Q9.3-8.7 9.3-7.65L9.3-7.65 9.3-5.6Q9.3-4.85 9-4.85Z" opacity="1" transform="matrix(1,0,0,1,0,0)" fill="white" class="wordmark-text-0" id="SvgjsPath1056"></path></svg></g></svg></g></svg></g></svg></g></svg></g></svg></g></svg></g></svg></g><defs><mask></mask></defs></svg><rect width="395.52" height="247.2" fill="black" stroke="none" visibility="hidden"></rect></g></mask><linearGradient x1="0" x2="1" y1="0.5" y2="0.5" id="638bb45d-4d53-4eaa-bc11-a20dc0f58917"><stop stop-color="#fff72e" offset="0"></stop><stop stop-color="#deae29" offset="1"></stop></linearGradient><rect width="395.52" height="247.2" fill="url(#638bb45d-4d53-4eaa-bc11-a20dc0f58917)" mask="url(#93c72538-6996-4645-9510-1227e5f5bcd0)" data-fill-palette-color="primary"></rect><mask id="31aa3542-e8d5-4005-926e-1dc8a3dd6cb1"><g id="SvgjsG1117"><svg viewBox="0 0 395.52 247.2" height="247.2" width="395.52"><g><svg></svg></g><g><svg viewBox="0 0 395.52 247.2" height="247.2" width="395.52"><mask id="SvgjsMask1116"><rect width="395.52" height="247.2" fill="black"></rect><g transform="matrix(1,0,0,1,133.74358642972535,37.08)" id="SvgjsG1115"><svg viewBox="0 0 128.03282714054927 173.04" height="173.04" width="128.03282714054927"><g><svg viewBox="0 0 128.03282714054927 173.04" height="173.04" width="128.03282714054927"><g><svg viewBox="0 0 128.03282714054927 173.04" height="173.04" width="128.03282714054927"><g><svg viewBox="0 0 128.03282714054927 173.04" height="173.04" width="128.03282714054927"><g id="SvgjsG1114"><svg viewBox="0 0 128.03282714054927 173.04" height="173.04" width="128.03282714054927" id="SvgjsSvg1113"><g><svg viewBox="0 0 128.03282714054927 173.04" height="173.04" width="128.03282714054927"><g transform="matrix(1,0,0,1,0,0)"><svg width="128.03282714054927" viewBox="-2.75 -28.3 23.9 31.95" height="173.04" data-palette-color="url(#638bb45d-4d53-4eaa-bc11-a20dc0f58917)"><path d="M9.1 0.65L9.1 0.65Q4.1 0.65 2.18-1.38 0.25-3.4 0.25-7.8L0.25-7.8 0.25-10.65 3.75-10.65Q2.55-11.45 1.68-12.75 0.8-14.05 0.8-16.35L0.8-16.35 0.8-17.6Q0.8-21.7 2.8-23.5 4.8-25.3 9.65-25.3L9.65-25.3Q14.55-25.3 16.35-23.38 18.15-21.45 18.15-17.15L18.15-17.15 18.15-14.4 15.15-14.4Q16.45-13.65 17.3-12.4 18.15-11.15 18.15-8.95L18.15-8.95 18.15-7.35Q18.15-3.1 16.13-1.23 14.1 0.65 9.1 0.65ZM9.1-0.25L9.1-0.25Q13.55-0.25 15.43-1.93 17.3-3.6 17.3-7.35L17.3-7.35 17.3-8.95Q17.3-11.3 16.05-12.63 14.8-13.95 12.9-14.5L12.9-14.5 12.05-14.75Q11.65-14.85 11.28-14.98 10.9-15.1 10.6-15.3L10.6-15.3 17.3-15.3 17.3-17.15Q17.3-21 15.65-22.73 14-24.45 9.65-24.45L9.65-24.45Q5.25-24.45 3.45-22.85 1.65-21.25 1.65-17.6L1.65-17.6 1.65-16.35Q1.65-13.85 3.08-12.48 4.5-11.1 6.35-10.45L6.35-10.45Q6.6-10.35 7.15-10.1 7.7-9.85 7.9-9.75L7.9-9.75 1.1-9.75 1.1-7.8Q1.1-3.85 2.83-2.05 4.55-0.25 9.1-0.25ZM9.1-0.7L9.1-0.7Q4.8-0.7 3.18-2.43 1.55-4.15 1.55-7.8L1.55-7.8 1.55-9.3 8.25-9.3 8.25-5.9Q8.25-5.05 8.45-4.73 8.65-4.4 9-4.4L9-4.4Q9.4-4.4 9.55-4.75 9.7-5.1 9.7-5.6L9.7-5.6 9.7-7.65Q9.7-9.25 8.68-9.83 7.65-10.4 6.15-11L6.15-11Q4.55-11.7 3.33-12.85 2.1-14 2.1-16.35L2.1-16.35 2.1-17.6Q2.1-21 3.83-22.5 5.55-24 9.65-24L9.65-24Q13.75-24 15.3-22.38 16.85-20.75 16.85-17.15L16.85-17.15 16.85-15.75 10.4-15.75 10.4-19.1Q10.4-20.3 9.7-20.3L9.7-20.3Q9.35-20.3 9.15-20.08 8.95-19.85 8.95-19.15L8.95-19.15 8.95-17.05Q8.95-15.95 9.75-15.33 10.55-14.7 12.75-14L12.75-14Q14.5-13.45 15.68-12.33 16.85-11.2 16.85-8.95L16.85-8.95 16.85-7.35Q16.85-3.85 15.1-2.27 13.35-0.7 9.1-0.7ZM10-19.15L10-15.7Q9.4-16.15 9.4-17.05L9.4-17.05 9.4-19.15Q9.4-19.85 9.7-19.85L9.7-19.85Q10-19.85 10-19.15L10-19.15ZM9-4.85L9-4.85Q8.85-4.85 8.78-5.03 8.7-5.2 8.7-5.7L8.7-5.7 8.7-9.3Q9.3-8.7 9.3-7.65L9.3-7.65 9.3-5.6Q9.3-4.85 9-4.85Z" opacity="1" transform="matrix(1,0,0,1,0,0)" fill="black" class="wordmark-text-0" id="SvgjsPath1112" stroke-width="5" stroke="black" stroke-linejoin="round"></path></svg></g></svg></g></svg></g></svg></g></svg></g></svg></g></svg></g></mask><g mask="url(#86411103-6cd5-4140-b04b-8b3499067d1f)"><g><path d="M195.898 225.352v0c-14.447 0-26.186-1.919-35.216-5.756-9.03-3.838-15.734-10.339-20.113-19.504-4.425-9.12-6.637-21.919-6.637-38.398v0-14.222h39.279c-9.707-3.612-17.314-7.969-22.822-13.07-5.553-5.057-9.459-11.603-11.716-19.64-2.257-7.991-3.386-18.307-3.386-30.949v0c0-15.576 1.919-27.879 5.756-36.908 3.838-9.03 10.271-15.463 19.301-19.301 9.03-3.838 21.445-5.756 37.247-5.756v0c41.31 0 61.966 17.833 61.965 53.5v0 29.798h-25.734c6.998 3.612 12.483 7.675 16.456 12.19 3.928 4.515 6.795 10.203 8.601 17.066 1.806 6.908 2.709 15.779 2.709 26.614v0c0 23.251-5.643 39.775-16.931 49.573-11.287 9.842-27.54 14.763-48.759 14.763zM195.898 219.257v0c19.188 0 33.974-4.402 44.358-13.206 10.384-8.804 15.576-23.816 15.576-45.035v0c0-12.19-1.016-21.558-3.048-28.104-2.032-6.546-5.869-11.806-11.513-15.779-5.643-3.928-13.883-7.923-24.718-11.987v0c-3.612-1.354-6.321-2.483-8.127-3.386-1.806-0.903-3.386-1.806-4.74-2.709v0h50.114v-23.703c0-31.604-18.736-47.405-56.209-47.405v0c-14.222 0-25.396 1.806-33.523 5.418-8.127 3.612-13.928 9.481-17.404 17.607-3.522 8.127-5.282 19.075-5.282 32.845v0c0 14.447 2.032 26.186 6.094 35.216 4.063 9.03 11.964 16.253 23.703 21.671v0c5.192 2.483 9.549 4.628 13.07 6.433 3.476 1.806 6.456 3.725 8.94 5.757v0h-53.501v8.804c0 21.897 4.47 36.954 13.409 45.17 8.894 8.262 23.161 12.393 42.801 12.393zM195.898 216.21v0c-18.511 0-31.987-3.838-40.43-11.513-8.488-7.675-12.732-22.01-12.732-43.003v0-5.757h48.76v17.947c0 5.869 0.497 9.82 1.49 11.851 1.038 2.032 2.573 3.047 4.605 3.047v0c2.257 0 3.792-1.242 4.605-3.724 0.768-2.483 1.151-6.885 1.151-13.206v0c0-6.772-1.061-11.964-3.183-15.576-2.167-3.612-5.508-6.727-10.023-9.346-4.515-2.573-10.497-5.553-17.946-8.939v0c-11.061-5.192-18.511-12.032-22.348-20.52-3.838-8.443-5.756-19.662-5.757-33.658v0c0-13.093 1.648-23.477 4.944-31.152 3.251-7.675 8.781-13.161 16.592-16.456 7.765-3.251 18.42-4.876 31.965-4.876v0c35.441 0 53.162 14.673 53.161 44.019v0 20.655h-46.389v-5.079c0-4.289-0.045-7.969-0.136-11.038-0.135-3.025-0.316-5.666-0.541-7.924v0c-0.226-4.289-2.032-6.434-5.418-6.434v0c-1.58 0-2.935 0.903-4.063 2.709-1.129 1.806-1.693 5.869-1.693 12.19v0c0 6.546 0.971 11.4 2.912 14.56 1.896 3.16 4.65 5.531 8.262 7.111 3.612 1.58 7.788 3.386 12.528 5.418v0c9.255 3.612 16.547 7.337 21.874 11.174 5.282 3.838 9.052 8.962 11.31 15.373 2.257 6.456 3.386 15.441 3.386 26.953v0c0 20.091-4.966 34.312-14.899 42.665-9.933 8.352-23.928 12.529-41.987 12.529zM201.315 90.924v6.434c-1.806-1.58-3.273-3.612-4.402-6.095-1.129-2.483-1.693-6.095-1.693-10.836v0c0-4.741 0.293-7.901 0.881-9.481 0.542-1.58 1.264-2.37 2.167-2.37v0c1.354 0 2.257 1.919 2.709 5.756v0c0.226 1.806 0.339 4.108 0.338 6.908 0 2.844 0 6.072 0 9.684zM197.591 185.735v0c-1.354 0-2.19-0.903-2.506-2.709-0.361-1.806-0.542-5.192-0.542-10.158v0-19.301c2.032 2.257 3.567 4.853 4.605 7.788 0.993 2.935 1.49 6.772 1.49 11.513v0c0 5.192-0.226 8.623-0.677 10.293-0.451 1.716-1.242 2.573-2.37 2.574z" fill="white" fill-rule="nonzero" stroke="none" stroke-width="1" stroke-linecap="butt" stroke-linejoin="miter" stroke-miterlimit="10" stroke-dasharray="" stroke-dashoffset="0" font-family="none" font-weight="none" font-size="none" text-anchor="none" style="mix-blend-mode: normal"></path></g></g><g transform="matrix(1,0,0,1,133.74358642972535,37.08)"><svg viewBox="0 0 128.03282714054927 173.04" height="173.04" width="128.03282714054927"><g><svg viewBox="0 0 128.03282714054927 173.04" height="173.04" width="128.03282714054927"><g><svg viewBox="0 0 128.03282714054927 173.04" height="173.04" width="128.03282714054927"><g><svg viewBox="0 0 128.03282714054927 173.04" height="173.04" width="128.03282714054927"><g id="SvgjsG1111"><svg viewBox="0 0 128.03282714054927 173.04" height="173.04" width="128.03282714054927" id="SvgjsSvg1110"><g><svg viewBox="0 0 128.03282714054927 173.04" height="173.04" width="128.03282714054927"><g transform="matrix(1,0,0,1,0,0)"><svg width="128.03282714054927" viewBox="-2.75 -28.3 23.9 31.95" height="173.04" data-palette-color="url(#638bb45d-4d53-4eaa-bc11-a20dc0f58917)"></svg></g></svg></g></svg></g></svg></g></svg></g></svg></g></svg></g></svg></g><defs><mask></mask></defs><mask><g id="SvgjsG1109"><svg viewBox="0 0 395.52 247.2" height="247.2" width="395.52"><g><svg></svg></g><g><svg viewBox="0 0 395.52 247.2" height="247.2" width="395.52"><mask id="SvgjsMask1108"><rect width="395.52" height="247.2" fill="black"></rect><g transform="matrix(1,0,0,1,133.74358642972535,37.08)" id="SvgjsG1107"><svg viewBox="0 0 128.03282714054927 173.04" height="173.04" width="128.03282714054927"><g><svg viewBox="0 0 128.03282714054927 173.04" height="173.04" width="128.03282714054927"><g><svg viewBox="0 0 128.03282714054927 173.04" height="173.04" width="128.03282714054927"><g><svg viewBox="0 0 128.03282714054927 173.04" height="173.04" width="128.03282714054927"><g id="SvgjsG1106"><svg viewBox="0 0 128.03282714054927 173.04" height="173.04" width="128.03282714054927" id="SvgjsSvg1105"><g><svg viewBox="0 0 128.03282714054927 173.04" height="173.04" width="128.03282714054927"><g transform="matrix(1,0,0,1,0,0)"><svg width="128.03282714054927" viewBox="-2.75 -28.3 23.9 31.95" height="173.04" data-palette-color="url(#638bb45d-4d53-4eaa-bc11-a20dc0f58917)"><path d="M9.1 0.65L9.1 0.65Q4.1 0.65 2.18-1.38 0.25-3.4 0.25-7.8L0.25-7.8 0.25-10.65 3.75-10.65Q2.55-11.45 1.68-12.75 0.8-14.05 0.8-16.35L0.8-16.35 0.8-17.6Q0.8-21.7 2.8-23.5 4.8-25.3 9.65-25.3L9.65-25.3Q14.55-25.3 16.35-23.38 18.15-21.45 18.15-17.15L18.15-17.15 18.15-14.4 15.15-14.4Q16.45-13.65 17.3-12.4 18.15-11.15 18.15-8.95L18.15-8.95 18.15-7.35Q18.15-3.1 16.13-1.23 14.1 0.65 9.1 0.65ZM9.1-0.25L9.1-0.25Q13.55-0.25 15.43-1.93 17.3-3.6 17.3-7.35L17.3-7.35 17.3-8.95Q17.3-11.3 16.05-12.63 14.8-13.95 12.9-14.5L12.9-14.5 12.05-14.75Q11.65-14.85 11.28-14.98 10.9-15.1 10.6-15.3L10.6-15.3 17.3-15.3 17.3-17.15Q17.3-21 15.65-22.73 14-24.45 9.65-24.45L9.65-24.45Q5.25-24.45 3.45-22.85 1.65-21.25 1.65-17.6L1.65-17.6 1.65-16.35Q1.65-13.85 3.08-12.48 4.5-11.1 6.35-10.45L6.35-10.45Q6.6-10.35 7.15-10.1 7.7-9.85 7.9-9.75L7.9-9.75 1.1-9.75 1.1-7.8Q1.1-3.85 2.83-2.05 4.55-0.25 9.1-0.25ZM9.1-0.7L9.1-0.7Q4.8-0.7 3.18-2.43 1.55-4.15 1.55-7.8L1.55-7.8 1.55-9.3 8.25-9.3 8.25-5.9Q8.25-5.05 8.45-4.73 8.65-4.4 9-4.4L9-4.4Q9.4-4.4 9.55-4.75 9.7-5.1 9.7-5.6L9.7-5.6 9.7-7.65Q9.7-9.25 8.68-9.83 7.65-10.4 6.15-11L6.15-11Q4.55-11.7 3.33-12.85 2.1-14 2.1-16.35L2.1-16.35 2.1-17.6Q2.1-21 3.83-22.5 5.55-24 9.65-24L9.65-24Q13.75-24 15.3-22.38 16.85-20.75 16.85-17.15L16.85-17.15 16.85-15.75 10.4-15.75 10.4-19.1Q10.4-20.3 9.7-20.3L9.7-20.3Q9.35-20.3 9.15-20.08 8.95-19.85 8.95-19.15L8.95-19.15 8.95-17.05Q8.95-15.95 9.75-15.33 10.55-14.7 12.75-14L12.75-14Q14.5-13.45 15.68-12.33 16.85-11.2 16.85-8.95L16.85-8.95 16.85-7.35Q16.85-3.85 15.1-2.27 13.35-0.7 9.1-0.7ZM10-19.15L10-15.7Q9.4-16.15 9.4-17.05L9.4-17.05 9.4-19.15Q9.4-19.85 9.7-19.85L9.7-19.85Q10-19.85 10-19.15L10-19.15ZM9-4.85L9-4.85Q8.85-4.85 8.78-5.03 8.7-5.2 8.7-5.7L8.7-5.7 8.7-9.3Q9.3-8.7 9.3-7.65L9.3-7.65 9.3-5.6Q9.3-4.85 9-4.85Z" opacity="1" transform="matrix(1,0,0,1,0,0)" fill="black" class="wordmark-text-0" id="SvgjsPath1104" stroke-width="5" stroke="black" stroke-linejoin="round"></path></svg></g></svg></g></svg></g></svg></g></svg></g></svg></g></svg></g></mask><g mask="url(#86411103-6cd5-4140-b04b-8b3499067d1f)"><g><path d="M195.898 225.352v0c-14.447 0-26.186-1.919-35.216-5.756-9.03-3.838-15.734-10.339-20.113-19.504-4.425-9.12-6.637-21.919-6.637-38.398v0-14.222h39.279c-9.707-3.612-17.314-7.969-22.822-13.07-5.553-5.057-9.459-11.603-11.716-19.64-2.257-7.991-3.386-18.307-3.386-30.949v0c0-15.576 1.919-27.879 5.756-36.908 3.838-9.03 10.271-15.463 19.301-19.301 9.03-3.838 21.445-5.756 37.247-5.756v0c41.31 0 61.966 17.833 61.965 53.5v0 29.798h-25.734c6.998 3.612 12.483 7.675 16.456 12.19 3.928 4.515 6.795 10.203 8.601 17.066 1.806 6.908 2.709 15.779 2.709 26.614v0c0 23.251-5.643 39.775-16.931 49.573-11.287 9.842-27.54 14.763-48.759 14.763zM195.898 219.257v0c19.188 0 33.974-4.402 44.358-13.206 10.384-8.804 15.576-23.816 15.576-45.035v0c0-12.19-1.016-21.558-3.048-28.104-2.032-6.546-5.869-11.806-11.513-15.779-5.643-3.928-13.883-7.923-24.718-11.987v0c-3.612-1.354-6.321-2.483-8.127-3.386-1.806-0.903-3.386-1.806-4.74-2.709v0h50.114v-23.703c0-31.604-18.736-47.405-56.209-47.405v0c-14.222 0-25.396 1.806-33.523 5.418-8.127 3.612-13.928 9.481-17.404 17.607-3.522 8.127-5.282 19.075-5.282 32.845v0c0 14.447 2.032 26.186 6.094 35.216 4.063 9.03 11.964 16.253 23.703 21.671v0c5.192 2.483 9.549 4.628 13.07 6.433 3.476 1.806 6.456 3.725 8.94 5.757v0h-53.501v8.804c0 21.897 4.47 36.954 13.409 45.17 8.894 8.262 23.161 12.393 42.801 12.393zM195.898 216.21v0c-18.511 0-31.987-3.838-40.43-11.513-8.488-7.675-12.732-22.01-12.732-43.003v0-5.757h48.76v17.947c0 5.869 0.497 9.82 1.49 11.851 1.038 2.032 2.573 3.047 4.605 3.047v0c2.257 0 3.792-1.242 4.605-3.724 0.768-2.483 1.151-6.885 1.151-13.206v0c0-6.772-1.061-11.964-3.183-15.576-2.167-3.612-5.508-6.727-10.023-9.346-4.515-2.573-10.497-5.553-17.946-8.939v0c-11.061-5.192-18.511-12.032-22.348-20.52-3.838-8.443-5.756-19.662-5.757-33.658v0c0-13.093 1.648-23.477 4.944-31.152 3.251-7.675 8.781-13.161 16.592-16.456 7.765-3.251 18.42-4.876 31.965-4.876v0c35.441 0 53.162 14.673 53.161 44.019v0 20.655h-46.389v-5.079c0-4.289-0.045-7.969-0.136-11.038-0.135-3.025-0.316-5.666-0.541-7.924v0c-0.226-4.289-2.032-6.434-5.418-6.434v0c-1.58 0-2.935 0.903-4.063 2.709-1.129 1.806-1.693 5.869-1.693 12.19v0c0 6.546 0.971 11.4 2.912 14.56 1.896 3.16 4.65 5.531 8.262 7.111 3.612 1.58 7.788 3.386 12.528 5.418v0c9.255 3.612 16.547 7.337 21.874 11.174 5.282 3.838 9.052 8.962 11.31 15.373 2.257 6.456 3.386 15.441 3.386 26.953v0c0 20.091-4.966 34.312-14.899 42.665-9.933 8.352-23.928 12.529-41.987 12.529zM201.315 90.924v6.434c-1.806-1.58-3.273-3.612-4.402-6.095-1.129-2.483-1.693-6.095-1.693-10.836v0c0-4.741 0.293-7.901 0.881-9.481 0.542-1.58 1.264-2.37 2.167-2.37v0c1.354 0 2.257 1.919 2.709 5.756v0c0.226 1.806 0.339 4.108 0.338 6.908 0 2.844 0 6.072 0 9.684zM197.591 185.735v0c-1.354 0-2.19-0.903-2.506-2.709-0.361-1.806-0.542-5.192-0.542-10.158v0-19.301c2.032 2.257 3.567 4.853 4.605 7.788 0.993 2.935 1.49 6.772 1.49 11.513v0c0 5.192-0.226 8.623-0.677 10.293-0.451 1.716-1.242 2.573-2.37 2.574z" fill="black" fill-rule="nonzero" stroke="none" stroke-width="1" stroke-linecap="butt" stroke-linejoin="miter" stroke-miterlimit="10" stroke-dasharray="" stroke-dashoffset="0" font-family="none" font-weight="none" font-size="none" text-anchor="none" style="mix-blend-mode: normal"></path></g></g><g transform="matrix(1,0,0,1,133.74358642972535,37.08)"><svg viewBox="0 0 128.03282714054927 173.04" height="173.04" width="128.03282714054927"><g><svg viewBox="0 0 128.03282714054927 173.04" height="173.04" width="128.03282714054927"><g><svg viewBox="0 0 128.03282714054927 173.04" height="173.04" width="128.03282714054927"><g><svg viewBox="0 0 128.03282714054927 173.04" height="173.04" width="128.03282714054927"><g id="SvgjsG1103"><svg viewBox="0 0 128.03282714054927 173.04" height="173.04" width="128.03282714054927" id="SvgjsSvg1102"><g><svg viewBox="0 0 128.03282714054927 173.04" height="173.04" width="128.03282714054927"><g transform="matrix(1,0,0,1,0,0)"><svg width="128.03282714054927" viewBox="-2.75 -28.3 23.9 31.95" height="173.04" data-palette-color="url(#638bb45d-4d53-4eaa-bc11-a20dc0f58917)"><path d="M9.1 0.65L9.1 0.65Q4.1 0.65 2.18-1.38 0.25-3.4 0.25-7.8L0.25-7.8 0.25-10.65 3.75-10.65Q2.55-11.45 1.68-12.75 0.8-14.05 0.8-16.35L0.8-16.35 0.8-17.6Q0.8-21.7 2.8-23.5 4.8-25.3 9.65-25.3L9.65-25.3Q14.55-25.3 16.35-23.38 18.15-21.45 18.15-17.15L18.15-17.15 18.15-14.4 15.15-14.4Q16.45-13.65 17.3-12.4 18.15-11.15 18.15-8.95L18.15-8.95 18.15-7.35Q18.15-3.1 16.13-1.23 14.1 0.65 9.1 0.65ZM9.1-0.25L9.1-0.25Q13.55-0.25 15.43-1.93 17.3-3.6 17.3-7.35L17.3-7.35 17.3-8.95Q17.3-11.3 16.05-12.63 14.8-13.95 12.9-14.5L12.9-14.5 12.05-14.75Q11.65-14.85 11.28-14.98 10.9-15.1 10.6-15.3L10.6-15.3 17.3-15.3 17.3-17.15Q17.3-21 15.65-22.73 14-24.45 9.65-24.45L9.65-24.45Q5.25-24.45 3.45-22.85 1.65-21.25 1.65-17.6L1.65-17.6 1.65-16.35Q1.65-13.85 3.08-12.48 4.5-11.1 6.35-10.45L6.35-10.45Q6.6-10.35 7.15-10.1 7.7-9.85 7.9-9.75L7.9-9.75 1.1-9.75 1.1-7.8Q1.1-3.85 2.83-2.05 4.55-0.25 9.1-0.25ZM9.1-0.7L9.1-0.7Q4.8-0.7 3.18-2.43 1.55-4.15 1.55-7.8L1.55-7.8 1.55-9.3 8.25-9.3 8.25-5.9Q8.25-5.05 8.45-4.73 8.65-4.4 9-4.4L9-4.4Q9.4-4.4 9.55-4.75 9.7-5.1 9.7-5.6L9.7-5.6 9.7-7.65Q9.7-9.25 8.68-9.83 7.65-10.4 6.15-11L6.15-11Q4.55-11.7 3.33-12.85 2.1-14 2.1-16.35L2.1-16.35 2.1-17.6Q2.1-21 3.83-22.5 5.55-24 9.65-24L9.65-24Q13.75-24 15.3-22.38 16.85-20.75 16.85-17.15L16.85-17.15 16.85-15.75 10.4-15.75 10.4-19.1Q10.4-20.3 9.7-20.3L9.7-20.3Q9.35-20.3 9.15-20.08 8.95-19.85 8.95-19.15L8.95-19.15 8.95-17.05Q8.95-15.95 9.75-15.33 10.55-14.7 12.75-14L12.75-14Q14.5-13.45 15.68-12.33 16.85-11.2 16.85-8.95L16.85-8.95 16.85-7.35Q16.85-3.85 15.1-2.27 13.35-0.7 9.1-0.7ZM10-19.15L10-15.7Q9.4-16.15 9.4-17.05L9.4-17.05 9.4-19.15Q9.4-19.85 9.7-19.85L9.7-19.85Q10-19.85 10-19.15L10-19.15ZM9-4.85L9-4.85Q8.85-4.85 8.78-5.03 8.7-5.2 8.7-5.7L8.7-5.7 8.7-9.3Q9.3-8.7 9.3-7.65L9.3-7.65 9.3-5.6Q9.3-4.85 9-4.85Z" opacity="1" transform="matrix(1,0,0,1,0,0)" fill="black" class="wordmark-text-0" id="SvgjsPath1101"></path></svg></g></svg></g></svg></g></svg></g></svg></g></svg></g></svg></g></svg></g><defs><mask></mask></defs></svg><rect width="395.52" height="247.2" fill="black" stroke="none" visibility="hidden"></rect></g></mask></svg><rect width="395.52" height="247.2" fill="black" stroke="none" visibility="hidden"></rect></g></mask><linearGradient x1="0" x2="1" y1="0.5" y2="0.5" id="b4f32806-d126-4489-b90f-f56abb826ebe"><stop stop-color="#fff72e" offset="0"></stop><stop stop-color="#deae29" offset="1"></stop></linearGradient></svg><rect width="395.52" height="247.2" fill="none" stroke="none" visibility="hidden"></rect></g></svg></g></svg>