<svg xmlns="http://www.w3.org/2000/svg" version="1.1" xmlns:xlink="http://www.w3.org/1999/xlink" xmlns:svgjs="http://svgjs.dev/svgjs" width="1500" height="1500" viewBox="0 0 1500 1500"><rect width="1500" height="1500" fill="#000000"></rect><g transform="matrix(0.6666666666666666,0,0,0.6666666666666666,249.38493280222224,236.0139784946237)"><svg viewBox="0 0 242 248" data-background-color="#ffffff" preserveAspectRatio="xMidYMid meet" height="1537" width="1500" xmlns="http://www.w3.org/2000/svg" xmlns:xlink="http://www.w3.org/1999/xlink"><g id="tight-bounds" transform="matrix(1,0,0,1,0.14884626186221794,0.4000000000000057)"><svg viewBox="0 0 241.70230747627554 247.2" height="247.2" width="241.70230747627554"><g><svg viewBox="0 0 395.52000000000004 404.51638637995603" height="247.2" width="241.70230747627554"><g transform="matrix(1,0,0,1,0,244.5146004922632)"><svg viewBox="0 0 395.52000000000004 160.00178588769282" height="160.00178588769282" width="395.52000000000004"><g id="textblocktransform"><svg viewBox="0 0 395.52000000000004 160.00178588769282" height="160.00178588769282" width="395.52000000000004" id="textblock"><g><svg viewBox="0 0 395.52000000000004 99.08729559748427" height="99.08729559748427" width="395.52000000000004"><g transform="matrix(1,0,0,1,0,0)"><svg width="395.52000000000004" viewBox="0.05 -34 190.78 47.8" height="99.08729559748427" data-palette-color="#ef5b2a"><path d="M8.95 0.7L8.95 0.7Q7.6 0.7 6.63-0.13 5.65-0.95 5.45-3.2L5.45-3.2Q5.35-4.9 5.03-6.95 4.7-9 4.2-10.85 3.7-12.7 3.05-13.75L3.05-13.75Q2.7-14.3 2.27-14.58 1.85-14.85 1-14.95L1-14.95Q0.45-15 0.25-15.3 0.05-15.6 0.05-16.25L0.05-16.25Q0.05-18.3 1.18-19.28 2.3-20.25 3.75-20.25L3.75-20.25Q5.25-20.25 6.25-19.28 7.25-18.3 7.8-16.7 8.35-15.1 8.58-13.18 8.8-11.25 8.8-9.3L8.8-9.3Q8.8-8.5 8.78-7.63 8.75-6.75 8.75-6.15L8.75-6.15Q8.75-5.6 8.97-5.3 9.2-5 9.85-5L9.85-5Q10.65-5 11.7-5.48 12.75-5.95 13.78-6.85 14.8-7.75 15.48-8.97 16.15-10.2 16.15-11.7L16.15-11.7Q16.15-12.55 15.88-13.5 15.6-14.45 15-15.1L15-15.1Q14.4-15.75 14.13-16.13 13.85-16.5 13.85-17L13.85-17Q13.85-17.9 14.68-18.65 15.5-19.4 16.63-19.85 17.75-20.3 18.6-20.3L18.6-20.3Q20.05-20.3 20.45-19.1 20.85-17.9 20.85-16.45L20.85-16.45Q20.85-13.7 19.85-10.7 18.85-7.7 17.15-5.1 15.45-2.5 13.33-0.9 11.2 0.7 8.95 0.7ZM31.3 0.7L31.3 0.7Q29.95 0.7 28.97-0.13 28-0.95 27.8-3.2L27.8-3.2Q27.7-4.9 27.37-6.95 27.05-9 26.55-10.85 26.05-12.7 25.4-13.75L25.4-13.75Q25.05-14.3 24.62-14.58 24.2-14.85 23.35-14.95L23.35-14.95Q22.8-15 22.6-15.3 22.4-15.6 22.4-16.25L22.4-16.25Q22.4-18.3 23.52-19.28 24.65-20.25 26.1-20.25L26.1-20.25Q27.6-20.25 28.6-19.28 29.6-18.3 30.15-16.7 30.7-15.1 30.92-13.18 31.15-11.25 31.15-9.3L31.15-9.3Q31.15-8.5 31.12-7.63 31.1-6.75 31.1-6.15L31.1-6.15Q31.1-5.6 31.32-5.3 31.55-5 32.2-5L32.2-5Q33-5 34.05-5.48 35.1-5.95 36.12-6.85 37.15-7.75 37.82-8.97 38.5-10.2 38.5-11.7L38.5-11.7Q38.5-12.55 38.22-13.5 37.95-14.45 37.35-15.1L37.35-15.1Q36.75-15.75 36.47-16.13 36.2-16.5 36.2-17L36.2-17Q36.2-17.9 37.02-18.65 37.85-19.4 38.97-19.85 40.1-20.3 40.95-20.3L40.95-20.3Q42.4-20.3 42.8-19.1 43.2-17.9 43.2-16.45L43.2-16.45Q43.2-13.7 42.2-10.7 41.2-7.7 39.5-5.1 37.8-2.5 35.67-0.9 33.55 0.7 31.3 0.7ZM49.75 13.8L49.75 13.8Q48.25 13.8 47.4 12.98 46.55 12.15 46.55 10L46.55 10Q46.55 8.55 46.87 6.35 47.2 4.15 47.65 1.7L47.65 1.7Q48-0.25 48.32-2.4 48.65-4.55 48.87-6.63 49.1-8.7 49.1-10.35L49.1-10.35Q49.1-12.25 48.67-13.65 48.25-15.05 46.95-15.45L46.95-15.45Q46.45-15.65 46.05-15.9 45.65-16.15 45.65-16.7L45.65-16.7Q45.65-17.4 46.2-18.25 46.75-19.1 47.77-19.73 48.8-20.35 50.1-20.35L50.1-20.35Q51.8-20.35 52.45-19.18 53.1-18 53.1-16.1L53.1-16.1Q53.1-15.55 53.05-14.98 53-14.4 52.9-13.8L52.9-13.8Q54.35-16.6 56.72-18.53 59.1-20.45 62.1-20.45L62.1-20.45Q65.1-20.45 66.82-18.43 68.55-16.4 68.55-12.95L68.55-12.95Q68.55-10.4 67.75-7.98 66.95-5.55 65.5-3.6 64.05-1.65 62.02-0.5 60 0.65 57.5 0.65L57.5 0.65Q55.7 0.65 54.35 0.03 53-0.6 52-1.6L52-1.6Q51.8-0.3 51.62 1.55 51.45 3.4 51.45 5L51.45 5Q51.45 6.85 51.87 7.9 52.3 8.95 53.55 9.5L53.55 9.5Q54.1 9.75 54.1 10.3L54.1 10.3Q54.1 10.7 53.7 11.55 53.3 12.4 52.37 13.1 51.45 13.8 49.75 13.8ZM58.65-4.75L58.65-4.75Q61.5-4.75 63.05-6.55 64.6-8.35 64.6-10.7L64.6-10.7Q64.6-12.75 63.5-13.88 62.4-15 60.55-15L60.55-15Q58.65-15 57.2-13.88 55.75-12.75 54.72-10.95 53.7-9.15 53.05-7.1L53.05-7.1Q55.55-4.75 58.65-4.75ZM74.44 0.55L74.44 0.55Q73.74 0.55 73.24 0.23 72.74-0.1 72.84-0.65L72.84-0.65Q73.59-4.65 74.12-8.78 74.64-12.9 74.64-17.1L74.64-17.1Q74.64-20.8 74.39-23.8 74.14-26.8 72.79-29.55L72.79-29.55Q72.54-30.1 72.39-30.5 72.24-30.9 72.24-31.25L72.24-31.25Q72.24-32.2 73.37-33.1 74.49-34 75.74-34L75.74-34Q77.49-34 78.14-31.8 78.79-29.6 78.79-25.3L78.79-25.3Q78.79-20.15 78.19-16.32 77.59-12.5 77.14-10.5L77.14-10.5 77.34-10.4Q78.34-13.05 79.77-15.35 81.19-17.65 83.09-19.05 84.99-20.45 87.49-20.45L87.49-20.45Q90.14-20.45 91.52-18.85 92.89-17.25 92.89-14.9L92.89-14.9Q92.89-13.9 92.69-12.98 92.49-12.05 92.24-11.2L92.24-11.2Q91.99-10.4 91.79-9.58 91.59-8.75 91.59-7.9L91.59-7.9Q91.59-6.35 92.34-5.38 93.09-4.4 94.34-4L94.34-4Q94.69-3.9 94.87-3.73 95.04-3.55 95.04-3.1L95.04-3.1Q95.04-2.65 94.74-1.8 94.44-0.95 93.64-0.23 92.84 0.5 91.29 0.5L91.29 0.5Q89.29 0.5 88.19-0.93 87.09-2.35 87.09-4.6L87.09-4.6Q87.09-5.7 87.32-6.85 87.54-8 87.84-9.05L87.84-9.05Q88.09-10.1 88.29-11.03 88.49-11.95 88.49-12.6L88.49-12.6Q88.49-14.9 86.09-14.9L86.09-14.9Q84.09-14.9 82.57-13.48 81.04-12.05 79.97-9.88 78.89-7.7 78.19-5.4L78.19-5.4 78.19-3.7Q78.19-1.85 77.12-0.65 76.04 0.55 74.44 0.55ZM99.64 13.8L99.64 13.8Q97.59 13.8 96.12 12.7 94.64 11.6 94.64 9.75L94.64 9.75Q94.64 8.3 95.52 7.28 96.39 6.25 97.69 6.25L97.69 6.25Q98.29 6.25 98.54 6.45 98.79 6.65 98.94 6.9L98.94 6.9Q99.34 7.55 99.87 8.03 100.39 8.5 101.29 8.5L101.29 8.5Q102.49 8.5 103.62 7.65 104.74 6.8 105.69 5.7L105.69 5.7Q106.54 4.75 107.74 2.98 108.94 1.2 110.14-1.05L110.14-1.05Q109.04-0.1 108.09 0.33 107.14 0.75 106.29 0.75L106.29 0.75Q105.24 0.75 104.24-0.03 103.24-0.8 102.99-2.95L102.99-2.95Q102.84-4.6 102.42-6.6 101.99-8.6 101.37-10.48 100.74-12.35 99.84-13.65L99.84-13.65Q99.49-14.25 99.04-14.55 98.59-14.85 97.74-14.95L97.74-14.95Q97.14-15 96.97-15.3 96.79-15.6 96.79-16.25L96.79-16.25Q96.79-18.05 97.79-19.15 98.79-20.25 100.49-20.25L100.49-20.25Q102.54-20.25 103.44-18.68 104.34-17.1 104.99-14.85L104.99-14.85Q105.24-13.95 105.52-12.48 105.79-11 106.02-9.3 106.24-7.6 106.34-6.05L106.34-6.05Q106.39-4.95 107.59-4.95L107.59-4.95Q109.19-4.95 110.64-5.95 112.09-6.95 113.02-8.55 113.94-10.15 113.94-11.9L113.94-11.9Q113.94-12.9 113.69-13.7 113.44-14.5 112.84-15.1L112.84-15.1Q112.34-15.7 112.04-16.07 111.74-16.45 111.74-16.95L111.74-16.95Q111.74-17.8 112.54-18.55 113.34-19.3 114.47-19.8 115.59-20.3 116.44-20.3L116.44-20.3Q117.94-20.3 118.44-18.88 118.94-17.45 118.69-15.75L118.69-15.75Q118.39-13.4 117.49-10.2 116.59-7 115.17-3.5 113.74 0 111.92 3.28 110.09 6.55 108.04 9L108.04 9Q106.29 11.15 104.14 12.48 101.99 13.8 99.64 13.8ZM128.59 0.65L128.59 0.65Q126.74 0.65 125.14 0.1 123.54-0.45 122.54-1.45 121.54-2.45 121.54-3.85L121.54-3.85Q121.54-4.6 121.91-5.28 122.29-5.95 123.14-5.95L123.14-5.95Q123.59-5.95 124.09-5.7L124.09-5.7Q124.99-5.2 126.39-4.78 127.79-4.35 129.34-4.35L129.34-4.35Q131.09-4.35 132.44-4.85 133.79-5.35 133.79-6.25L133.79-6.25Q133.79-6.95 132.76-7.25 131.74-7.55 129.34-7.9L129.34-7.9Q127.69-8.2 126.14-8.6 124.59-9 123.59-9.98 122.59-10.95 122.59-12.85L122.59-12.85Q122.59-14.7 123.61-16.43 124.64-18.15 126.69-19.3 128.74-20.45 131.69-20.45L131.69-20.45Q133.24-20.45 134.69-20.1 136.14-19.75 137.09-19.05 138.04-18.35 138.04-17.3L138.04-17.3Q138.04-16.4 137.41-15.65 136.79-14.9 135.96-14.43 135.14-13.95 134.59-13.95L134.59-13.95Q134.19-13.95 133.64-14.5L133.64-14.5Q132.79-15.2 131.76-15.48 130.74-15.75 129.74-15.75L129.74-15.75Q128.24-15.75 127.31-15.3 126.39-14.85 126.39-14.15L126.39-14.15Q126.39-13.5 127.16-13.1 127.94-12.7 129.09-12.53 130.24-12.35 131.29-12.2L131.29-12.2Q134.19-11.8 135.89-10.83 137.59-9.85 137.59-7.4L137.59-7.4Q137.59-5.5 136.51-3.63 135.44-1.75 133.41-0.55 131.39 0.65 128.59 0.65ZM146.09-24.85L146.09-24.85Q144.69-24.9 143.84-25.7 142.99-26.5 142.99-27.95L142.99-27.95Q143.04-29.5 144.04-30.48 145.04-31.45 146.59-31.4L146.59-31.4Q148.04-31.35 148.86-30.55 149.69-29.75 149.64-28.3L149.64-28.3Q149.59-26.8 148.64-25.83 147.69-24.85 146.09-24.85ZM146.14 0.5L146.14 0.5Q144.64 0.5 143.79-0.33 142.94-1.15 142.94-3.15L142.94-3.15Q142.94-4.3 143.16-5.4 143.39-6.5 143.69-7.55L143.69-7.55Q144.04-8.65 144.26-9.8 144.49-10.95 144.49-12.25L144.49-12.25Q144.49-13.15 144.24-13.98 143.99-14.8 143.14-15.2L143.14-15.2Q142.49-15.55 142.01-15.93 141.54-16.3 141.54-16.9L141.54-16.9Q141.54-17.6 142.19-18.4 142.84-19.2 143.91-19.78 144.99-20.35 146.14-20.35L146.14-20.35Q147.39-20.35 147.96-19.7 148.54-19.05 148.74-18.05 148.94-17.05 148.94-16L148.94-16Q148.94-14.4 148.69-12.88 148.44-11.35 148.19-10.05L148.19-10.05Q147.99-9.1 147.89-8.3 147.79-7.5 147.79-6.8L147.79-6.8Q147.79-5.55 148.39-4.93 148.99-4.3 150.09-3.75L150.09-3.75Q150.54-3.5 150.54-3L150.54-3Q150.54-2.6 150.14-1.75 149.74-0.9 148.76-0.2 147.79 0.5 146.14 0.5ZM161.53 0.65L161.53 0.65Q158.03 0.65 156.06-1.48 154.08-3.6 154.08-7.4L154.08-7.4Q154.08-11.15 155.68-14.1 157.28-17.05 160.08-18.75 162.88-20.45 166.43-20.45L166.43-20.45Q168.83-20.45 170.23-19.65 171.63-18.85 171.63-17.45L171.63-17.45Q171.63-16.2 170.43-15L170.43-15Q169.98-14.55 169.26-14.18 168.53-13.8 168.13-13.8L168.13-13.8Q167.68-13.8 167.38-14.15L167.38-14.15Q166.88-14.7 166.08-15.2 165.28-15.7 163.83-15.7L163.83-15.7Q161.38-15.7 159.83-14.03 158.28-12.35 158.28-9.65L158.28-9.65Q158.28-7.2 159.68-5.7 161.08-4.2 163.38-4.2L163.38-4.2Q164.58-4.2 166.01-4.63 167.43-5.05 168.53-5.85L168.53-5.85Q169.08-6.35 169.68-6.35L169.68-6.35Q170.68-6.35 170.68-5.1L170.68-5.1Q170.68-3.45 169.03-1.95L169.03-1.95Q167.78-0.8 165.71-0.08 163.63 0.65 161.53 0.65ZM181.38 0.65L181.38 0.65Q179.53 0.65 177.93 0.1 176.33-0.45 175.33-1.45 174.33-2.45 174.33-3.85L174.33-3.85Q174.33-4.6 174.71-5.28 175.08-5.95 175.93-5.95L175.93-5.95Q176.38-5.95 176.88-5.7L176.88-5.7Q177.78-5.2 179.18-4.78 180.58-4.35 182.13-4.35L182.13-4.35Q183.88-4.35 185.23-4.85 186.58-5.35 186.58-6.25L186.58-6.25Q186.58-6.95 185.56-7.25 184.53-7.55 182.13-7.9L182.13-7.9Q180.48-8.2 178.93-8.6 177.38-9 176.38-9.98 175.38-10.95 175.38-12.85L175.38-12.85Q175.38-14.7 176.41-16.43 177.43-18.15 179.48-19.3 181.53-20.45 184.48-20.45L184.48-20.45Q186.03-20.45 187.48-20.1 188.93-19.75 189.88-19.05 190.83-18.35 190.83-17.3L190.83-17.3Q190.83-16.4 190.21-15.65 189.58-14.9 188.76-14.43 187.93-13.95 187.38-13.95L187.38-13.95Q186.98-13.95 186.43-14.5L186.43-14.5Q185.58-15.2 184.56-15.48 183.53-15.75 182.53-15.75L182.53-15.75Q181.03-15.75 180.11-15.3 179.18-14.85 179.18-14.15L179.18-14.15Q179.18-13.5 179.96-13.1 180.73-12.7 181.88-12.53 183.03-12.35 184.08-12.2L184.08-12.2Q186.98-11.8 188.68-10.83 190.38-9.85 190.38-7.4L190.38-7.4Q190.38-5.5 189.31-3.63 188.23-1.75 186.21-0.55 184.18 0.65 181.38 0.65Z" opacity="1" transform="matrix(1,0,0,1,0,0)" fill="#ffffff" class="wordmark-text-0" data-fill-palette-color="primary" id="text-0"></path></svg></g></svg></g><g transform="matrix(1,0,0,1,75.54432000000001,122.47942799295598)"><svg viewBox="0 0 244.43136 37.52235789473684" height="37.52235789473684" width="244.43136"><g transform="matrix(1,0,0,1,0,0)"><svg width="244.43136" viewBox="0.42 -33.33 284.96 43.75" height="37.52235789473684" data-palette-color="#ef5b2a"><path d="M21.46-20.83L10.94 1.04 0.42-20.83 4.69-20.83 8.92-11.81Q9.51-10.59 10.03-9.41 10.56-8.23 11.04-6.53L11.04-6.53Q11.56-8.23 12.1-9.43 12.64-10.63 13.19-11.81L13.19-11.81 17.47-20.83 21.46-20.83ZM35.14 0.42L35.14 0.42Q31.87 0.42 29.29-1.04 26.7-2.5 25.22-5.02 23.75-7.53 23.75-10.63L23.75-10.63Q23.75-13.58 25.17-15.99 26.59-18.4 29.01-19.83 31.42-21.25 34.34-21.25L34.34-21.25Q37.22-21.25 39.62-19.88 42.01-18.51 43.44-16.18 44.86-13.85 44.86-10.9L44.86-10.9 44.86-9.38 31.25-9.38Q30.34-9.38 29.41-9.44 28.47-9.51 27.57-9.65L27.57-9.65Q27.95-6.88 30.08-5 32.22-3.13 35.17-3.13L35.17-3.13Q37.15-3.13 38.85-4.03 40.55-4.93 41.59-6.42L41.59-6.42 42.64-2.15Q41.14-0.94 39.22-0.26 37.29 0.42 35.14 0.42ZM27.46-12.19L27.46-12.19Q29.34-12.5 31.25-12.5L31.25-12.5 38.16-12.5Q38.92-12.5 39.67-12.45 40.41-12.4 41.18-12.33L41.18-12.33Q40.69-14.76 38.75-16.34 36.8-17.92 34.34-17.92L34.34-17.92Q31.8-17.92 29.89-16.23 27.98-14.55 27.46-12.19ZM53.61 0L49.86 0 49.86-20.83 53.33-20.83 53.33-17.47Q54.47-19.31 56.3-20.28 58.12-21.25 60.24-21.25L60.24-21.25Q62.46-21.25 64.35-20.16 66.25-19.06 67.43-17 68.61-14.93 68.61-11.98L68.61-11.98 68.61 0 64.86 0 64.86-11.46Q64.86-13.92 63.38-15.82 61.9-17.71 59.23-17.71L59.23-17.71Q57.04-17.71 55.32-16.13 53.61-14.55 53.61-11.56L53.61-11.56 53.61 0ZM93.19 0L88.43 0 79.02-11.46 86.76-20.83 91.1-20.83 83.5-11.74 93.19 0ZM78.6 0L74.85 0 74.85-33.33 78.6-33.33 78.6 0ZM105.65 0.28L105.65 0.28Q102.8 0.28 100.44-1.16 98.08-2.6 96.67-5.03 95.27-7.47 95.27-10.42L95.27-10.42Q95.27-13.37 96.67-15.8 98.08-18.23 100.44-19.67 102.8-21.11 105.65-21.11L105.65-21.11Q107.8-21.11 109.69-20.31 111.59-19.51 112.98-18.09L112.98-18.09 112.98-20.83 116.45-20.83 116.45 0 112.98 0 112.98-2.74Q111.59-1.35 109.69-0.54 107.8 0.28 105.65 0.28ZM106.14-3.13L106.14-3.13Q108.12-3.13 109.73-4.11 111.34-5.1 112.3-6.75 113.25-8.4 113.25-10.42L113.25-10.42Q113.25-12.43 112.3-14.08 111.34-15.73 109.73-16.72 108.12-17.71 106.14-17.71L106.14-17.71Q104.16-17.71 102.54-16.72 100.93-15.73 99.97-14.08 99.02-12.43 99.02-10.42L99.02-10.42Q99.02-8.4 99.97-6.75 100.93-5.1 102.54-4.11 104.16-3.13 106.14-3.13ZM129.29 0L125.54 0 125.54-17.71 120.82-17.71 120.82-20.83 125.65-20.83 125.65-27.78 129.19-27.78 129.19-20.83 134.36-20.83 134.36-17.71 129.29-17.71 129.29 0ZM152.9 10.42L149.15 10.42 149.15-20.83 152.62-20.83 152.62-18.09Q154.04-19.51 155.92-20.31 157.79-21.11 159.95-21.11L159.95-21.11Q162.83-21.11 165.17-19.67 167.52-18.23 168.92-15.8 170.33-13.37 170.33-10.42L170.33-10.42Q170.33-7.47 168.92-5.03 167.52-2.6 165.17-1.16 162.83 0.28 159.95 0.28L159.95 0.28Q157.9 0.28 156.09-0.45 154.29-1.18 152.9-2.47L152.9-2.47 152.9 10.42ZM159.46-3.13L159.46-3.13Q161.44-3.13 163.06-4.11 164.67-5.1 165.62-6.75 166.58-8.4 166.58-10.42L166.58-10.42Q166.58-12.43 165.62-14.08 164.67-15.73 163.06-16.72 161.44-17.71 159.46-17.71L159.46-17.71Q157.48-17.71 155.87-16.72 154.25-15.73 153.3-14.08 152.34-12.43 152.34-10.42L152.34-10.42Q152.34-8.4 153.3-6.75 154.25-5.1 155.87-4.11 157.48-3.13 159.46-3.13ZM179.29 0L175.54 0 175.54-33.33 179.29-33.33 179.29-17.88Q180.47-19.51 182.2-20.38 183.94-21.25 185.92-21.25L185.92-21.25Q188.14-21.25 190.03-20.16 191.92-19.06 193.1-17 194.29-14.93 194.29-11.98L194.29-11.98 194.29 0 190.54 0 190.54-11.46Q190.54-13.92 189.06-15.82 187.58-17.71 184.91-17.71L184.91-17.71Q182.72-17.71 181-16.13 179.29-14.55 179.29-11.56L179.29-11.56 179.29 0ZM203.73 10.42L199.66 10.42 206.44-3.06 197.62-20.83 201.85-20.83 206.3-11.81Q206.89-10.59 207.44-9.41 208-8.23 208.55-6.56L208.55-6.56Q209.14-8.23 209.68-9.43 210.22-10.63 210.85-11.81L210.85-11.81 215.36-20.83 219.35-20.83 203.73 10.42ZM228.48 0.42L228.48 0.42Q226.88 0.42 225.06-0.19 223.24-0.8 221.92-2.22L221.92-2.22 222.96-6.32Q223.93-4.69 225.46-3.73 226.99-2.78 228.73-2.78L228.73-2.78Q230.39-2.78 231.23-3.59 232.06-4.41 232.06-5.59L232.06-5.59Q232.06-6.94 231.17-7.57 230.29-8.19 229.59-8.44L229.59-8.44 226.78-9.51Q226.02-9.83 224.94-10.43 223.86-11.04 223.07-12.19 222.27-13.33 222.27-15.17L222.27-15.17Q222.27-16.84 223.07-18.23 223.86-19.62 225.32-20.43 226.78-21.25 228.76-21.25L228.76-21.25Q230.32-21.25 232.02-20.69 233.73-20.14 234.91-18.82L234.91-18.82 233.86-14.72Q233.03-16.25 231.61-17.15 230.18-18.06 228.66-18.06L228.66-18.06Q227.23-18.06 226.42-17.26 225.6-16.46 225.6-15.42L225.6-15.42Q225.6-14.58 226.16-13.92 226.71-13.26 227.82-12.85L227.82-12.85 230.63-11.77Q231.4-11.49 232.53-10.87 233.66-10.24 234.52-9.06 235.39-7.88 235.39-5.87L235.39-5.87Q235.39-3.06 233.43-1.32 231.47 0.42 228.48 0.42ZM244.56 0L240.81 0 240.81-20.83 244.56-20.83 244.56 0ZM242.68-24.58L242.68-24.58Q241.64-24.58 240.91-25.31 240.18-26.04 240.18-27.08L240.18-27.08Q240.18-28.16 240.91-28.87 241.64-29.58 242.68-29.58L242.68-29.58Q243.76-29.58 244.47-28.87 245.18-28.16 245.18-27.08L245.18-27.08Q245.18-26.04 244.47-25.31 243.76-24.58 242.68-24.58ZM260.8 0.42L260.8 0.42Q257.75 0.42 255.25-1.04 252.75-2.5 251.25-4.97 249.76-7.43 249.76-10.42L249.76-10.42Q249.76-13.4 251.25-15.87 252.75-18.33 255.25-19.79 257.75-21.25 260.8-21.25L260.8-21.25Q263.06-21.25 265.04-20.45 267.02-19.65 268.51-18.33L268.51-18.33 267.37-13.61Q266.5-15.35 264.74-16.53 262.99-17.71 260.77-17.71L260.77-17.71Q258.75-17.71 257.11-16.72 255.46-15.73 254.48-14.08 253.51-12.43 253.51-10.42L253.51-10.42Q253.51-8.44 254.48-6.77 255.46-5.1 257.11-4.11 258.75-3.13 260.77-3.13L260.77-3.13Q262.99-3.13 264.74-4.27 266.5-5.42 267.37-7.22L267.37-7.22 268.51-2.5Q267.02-1.18 265.04-0.38 263.06 0.42 260.8 0.42ZM278.47 0.42L278.47 0.42Q276.88 0.42 275.05-0.19 273.23-0.8 271.91-2.22L271.91-2.22 272.95-6.32Q273.93-4.69 275.45-3.73 276.98-2.78 278.72-2.78L278.72-2.78Q280.38-2.78 281.22-3.59 282.05-4.41 282.05-5.59L282.05-5.59Q282.05-6.94 281.17-7.57 280.28-8.19 279.59-8.44L279.59-8.44 276.77-9.51Q276.01-9.83 274.93-10.43 273.86-11.04 273.06-12.19 272.26-13.33 272.26-15.17L272.26-15.17Q272.26-16.84 273.06-18.23 273.86-19.62 275.31-20.43 276.77-21.25 278.75-21.25L278.75-21.25Q280.31-21.25 282.02-20.69 283.72-20.14 284.9-18.82L284.9-18.82 283.86-14.72Q283.02-16.25 281.6-17.15 280.18-18.06 278.65-18.06L278.65-18.06Q277.22-18.06 276.41-17.26 275.59-16.46 275.59-15.42L275.59-15.42Q275.59-14.58 276.15-13.92 276.7-13.26 277.81-12.85L277.81-12.85 280.63-11.77Q281.39-11.49 282.52-10.87 283.65-10.24 284.52-9.06 285.38-7.88 285.38-5.87L285.38-5.87Q285.38-3.06 283.42-1.32 281.46 0.42 278.47 0.42Z" opacity="1" transform="matrix(1,0,0,1,0,0)" fill="#ffffff" class="slogan-text-1" data-fill-palette-color="secondary" id="text-1"></path></svg></g></svg></g></svg></g></svg></g><g transform="matrix(1,0,0,1,115.91596960053823,0)"><svg viewBox="0 0 163.68806079892357 221.12246809679152" height="221.12246809679152" width="163.68806079892357"><g><svg xmlns="http://www.w3.org/2000/svg" xmlns:xlink="http://www.w3.org/1999/xlink" version="1.1" baseProfile="tiny" x="0" y="0" viewBox="-6.5 2 28.5 38.5" xml:space="preserve" id="icon-0" width="163.68806079892357" height="221.12246809679152" class="icon-icon-0" data-fill-palette-color="accent"><g fill="#301c3b" data-fill-palette-color="accent"><circle cx="4.5" cy="34.5" r="2.0" fill="#ffffff" data-fill-palette-color="accent"></circle><path d="M6.5 37.5H3.5C2.4 37.5 1.5 38.4 1.5 39.5V40.5H8.5V39.5C8.5 38.4 7.6 37.5 6.5 37.5" fill="#ffffff" data-fill-palette-color="accent"></path><circle cx="12.5" cy="34.5" r="2.0" fill="#ffffff" data-fill-palette-color="accent"></circle><path d="M16.5 39.5C16.5 38.4 15.6 37.5 14.5 37.5H11.5C10.4 37.5 9.5 38.4 9.5 39.5V40.5H16.5z" fill="#ffffff" data-fill-palette-color="accent"></path><circle cx="-3.5" cy="34.5" r="2.0" fill="#ffffff" data-fill-palette-color="accent"></circle><path d="M-1.5 37.5H-4.5C-5.6 37.5-6.5 38.4-6.5 39.5V40.5H0.5V39.5C0.5 38.4-0.4 37.5-1.5 37.5" fill="#ffffff" data-fill-palette-color="accent"></path></g><g fill="#301c3b" data-fill-palette-color="accent"><circle cx="-3.5" cy="20.5" r="2.0" fill="#ffffff" data-fill-palette-color="accent"></circle><path d="M-4.5 23.5C-5.6 23.5-6.5 24.4-6.5 25.5V31.5H-0.5V25.5H2.5V23.5z" fill="#ffffff" data-fill-palette-color="accent"></path><path d="M14.5 18.5H3.5C2.9 18.5 2.5 18.9 2.5 19.5V23.5H4.5C4.6 23.5 4.8 23.5 4.9 23.6L8.2 21.1C8.4 20.9 8.7 21 8.9 21.2S9 21.7 8.8 21.9L5.5 24.4V24.5C5.5 25.1 5.1 25.5 4.5 25.5H2.5V27.5C2.5 28.1 2.9 28.5 3.5 28.5H4.5C4.5 27.9 4.9 27.5 5.5 27.5H7.5C8.1 27.5 8.5 27.9 8.5 28.5H14.5C15.1 28.5 15.5 28.1 15.5 27.5V19.5C15.5 18.9 15.1 18.5 14.5 18.5" fill="#ffffff" data-fill-palette-color="accent"></path></g></svg></g></svg></g><g></g></svg></g><defs></defs></svg><rect width="241.70230747627554" height="247.2" fill="none" stroke="none" visibility="hidden"></rect></g></svg></g></svg>